<?xml version="1.0" encoding="UTF-8"?>
<svg width="32px" height="32px" viewBox="0 0 32 32" version="1.1" xmlns="http://www.w3.org/2000/svg" xmlns:xlink="http://www.w3.org/1999/xlink">
    <!-- Generator: Sketch 54.1 (76490) - https://sketchapp.com -->
    <title>Logo</title>
    <desc>Created with Sketch.</desc>
    <g id="Page" stroke="none" stroke-width="1" fill="none" fill-rule="evenodd">
        <g id="Mobile" transform="translate(-16.000000, -16.000000)" fill="#FFFFFF">
            <g id="Logo" transform="translate(16.000000, 16.000000)">
                <path d="M12.9382716,12.3654321 C14.0707876,12.3654321 14.9135775,12.7111077 15.4666667,13.4024691 C16.0197559,14.0938306 16.2962963,15.1440259 16.2962963,16.5530864 L16.2962963,20.8197531 C16.2962963,21.3201671 16.1382732,21.7152249 15.8222222,22.0049383 C15.5061713,22.2946517 15.078192,22.4395062 14.5382716,22.4395062 C13.9983512,22.4395062 13.570372,22.2946517 13.254321,22.0049383 C12.93827,21.7152249 12.7802469,21.3201671 12.7802469,20.8197531 L12.7802469,16.4740741 C12.7802469,15.5259212 12.3720205,15.0518519 11.5555556,15.0518519 C11.028804,15.0518519 10.6107011,15.2197514 10.3012346,15.5555556 C9.991768,15.8913597 9.83703704,16.342384 9.83703704,16.908642 L9.83703704,20.8197531 C9.83703704,21.3201671 9.67901393,21.7152249 9.36296296,22.0049383 C9.046912,22.2946517 8.61893274,22.4395062 8.07901235,22.4395062 C7.53909195,22.4395062 7.11111269,22.2946517 6.79506173,22.0049383 C6.47901077,21.7152249 6.32098765,21.3201671 6.32098765,20.8197531 L6.32098765,9.87654321 C6.32098765,9.41563556 6.48559506,9.03703852 6.81481481,8.74074074 C7.14403457,8.44444296 7.57859812,8.2962963 8.11851852,8.2962963 C8.63210133,8.2962963 9.046912,8.43456652 9.36296296,8.71111111 C9.67901393,8.9876557 9.83703704,9.3563763 9.83703704,9.81728395 L9.83703704,13.7679012 C10.1925944,13.3069936 10.6337422,12.9580259 11.1604938,12.7209877 C11.6872454,12.4839494 12.2798321,12.3654321 12.9382716,12.3654321 Z" id="Path"></path>
                <path d="M24.7703704,13.3925926 C24.9152271,13.0633728 25.112756,12.8197539 25.362963,12.6617284 C25.61317,12.5037029 25.8897104,12.4246914 26.1925926,12.4246914 C26.6271627,12.4246914 27.0156361,12.5695459 27.3580247,12.8592593 C27.7004132,13.1489726 27.8716049,13.4979403 27.8716049,13.9061728 C27.8716049,14.1300423 27.8189306,14.347324 27.7135802,14.5580247 L22.4790123,25.0469136 C22.3209869,25.3761333 22.1135815,25.6197523 21.8567901,25.7777778 C21.5999987,25.9358033 21.3201661,26.0148148 21.017284,26.0148148 C20.5827139,26.0148148 20.1975325,25.8732524 19.8617284,25.5901235 C19.5259242,25.3069945 19.3580247,24.9613189 19.3580247,24.5530864 C19.3580247,24.329217 19.4172834,24.0987666 19.5358025,23.8617284 L20.8197531,21.2740741 L17.4617284,14.5580247 C17.3563781,14.3209865 17.3037037,14.110289 17.3037037,13.9259259 C17.3037037,13.5045246 17.488064,13.1456805 17.8567901,12.8493827 C18.2255162,12.5530849 18.6403269,12.4049383 19.1012346,12.4049383 C19.4172855,12.4049383 19.7102867,12.487242 19.9802469,12.6518519 C20.2502071,12.8164617 20.4576124,13.0633728 20.6024691,13.3925926 L22.6962963,17.9358025 L24.7703704,13.3925926 Z" id="Path"></path>
                <path d="M16,32 C24.836556,32 32,24.836556 32,16 C32,7.163444 24.836556,0 16,0 C7.163444,0 0,7.163444 0,16 C0,24.836556 7.163444,32 16,32 Z M16,30.0246914 C8.25437684,30.0246914 1.97530864,23.7456232 1.97530864,16 C1.97530864,8.25437684 8.25437684,1.97530864 16,1.97530864 C23.7456232,1.97530864 30.0246914,8.25437684 30.0246914,16 C30.0246914,23.7456232 23.7456232,30.0246914 16,30.0246914 Z" id="Oval" fill-rule="nonzero"></path>
            </g>
        </g>
    </g>
</svg>